
<svg width="9px" height="18px" viewBox="259 417 9 18" version="1.1" xmlns="http://www.w3.org/2000/svg" xmlns:xlink="http://www.w3.org/1999/xlink">
    <!-- Generator: Sketch 41 (35326) - http://www.bohemiancoding.com/sketch -->
    <desc>Created with Sketch.</desc>
    <defs></defs>
    <path d="M265.457,417.99 C264.369,417.99 263.499,418.32 262.846,418.98 C262.192,419.64 261.866,420.57 261.866,421.76 L261.866,423.86 L259.462,423.86 L259.462,426.71 L261.866,426.71 L261.866,434.02 L264.75,434.02 L264.75,426.71 L267.144,426.71 L267.511,423.86 L264.75,423.86 L264.75,422.04 C264.75,421.58 264.844,421.23 265.032,421 C265.221,420.77 265.585,420.65 266.126,420.65 L267.605,420.65 L267.605,418.11 C267.096,418.03 266.38,417.99 265.457,417.99 L265.457,417.99 L265.457,417.99 Z" id="fa-facebook" stroke="none" fill="#75BDBF" fill-rule="evenodd"></path>
</svg>
