
<svg width="16px" height="15px" viewBox="221 418 16 15" version="1.1" xmlns="http://www.w3.org/2000/svg" xmlns:xlink="http://www.w3.org/1999/xlink">
    <!-- Generator: Sketch 41 (35326) - http://www.bohemiancoding.com/sketch -->
    <desc>Created with Sketch.</desc>
    <defs></defs>
    <path d="M221.709,423.29 L221.709,432.84 L224.819,432.84 L224.819,423.29 L221.709,423.29 L221.709,423.29 Z M224.537,419.17 C224.222,418.86 223.805,418.7 223.283,418.7 C222.761,418.7 222.339,418.86 222.015,419.17 C221.692,419.48 221.53,419.87 221.53,420.35 C221.53,420.82 221.687,421.21 222.001,421.52 C222.315,421.84 222.73,421.99 223.245,421.99 L223.264,421.99 C223.792,421.99 224.218,421.84 224.541,421.52 C224.865,421.21 225.023,420.82 225.017,420.35 C225.011,419.87 224.851,419.48 224.537,419.17 L224.537,419.17 Z M235.026,424.16 C234.373,423.44 233.509,423.07 232.434,423.07 C232.039,423.07 231.679,423.12 231.355,423.22 C231.032,423.32 230.758,423.46 230.535,423.64 C230.312,423.82 230.135,423.99 230.003,424.14 C229.871,424.3 229.742,424.47 229.616,424.68 L229.635,424.68 L229.635,423.29 L226.535,423.29 L226.544,423.76 C226.55,424.06 226.553,425.01 226.553,426.61 C226.553,428.2 226.547,430.28 226.535,432.84 L229.635,432.84 L229.635,427.51 C229.635,427.18 229.67,426.92 229.739,426.73 C229.871,426.41 230.07,426.13 230.337,425.91 C230.604,425.69 230.936,425.58 231.332,425.58 C231.872,425.58 232.269,425.77 232.524,426.15 C232.778,426.53 232.906,427.06 232.906,427.73 L232.906,432.84 L236.006,432.84 L236.006,427.37 C236.006,425.96 235.68,424.89 235.026,424.16 L235.026,424.16 Z" id="fa-linkedin" stroke="none" fill="#75BDBF" fill-rule="evenodd"></path>
</svg>
