
<svg width="15px" height="14px" viewBox="186 419 15 14" version="1.1" xmlns="http://www.w3.org/2000/svg" xmlns:xlink="http://www.w3.org/1999/xlink">
    <!-- Generator: Sketch 41 (35326) - http://www.bohemiancoding.com/sketch -->
    <desc>Created with Sketch.</desc>
    <defs></defs>
    <path d="M199.119,421.68 C199.779,421.28 200.225,420.71 200.457,419.97 C199.854,420.34 199.21,420.59 198.525,420.72 C197.922,420.07 197.181,419.74 196.301,419.74 C195.459,419.74 194.741,420.04 194.148,420.65 C193.554,421.26 193.257,421.99 193.257,422.85 C193.257,423.08 193.282,423.32 193.332,423.56 C192.088,423.5 190.921,423.18 189.831,422.61 C188.741,422.03 187.816,421.26 187.056,420.31 C186.779,420.79 186.641,421.31 186.641,421.88 C186.641,422.41 186.763,422.91 187.008,423.36 C187.253,423.82 187.583,424.19 187.998,424.47 C187.508,424.45 187.049,424.32 186.622,424.07 L186.622,424.11 C186.622,424.86 186.853,425.52 187.315,426.09 C187.777,426.66 188.359,427.02 189.063,427.16 C188.799,427.24 188.532,427.27 188.262,427.27 C188.086,427.27 187.894,427.26 187.687,427.22 C187.882,427.85 188.24,428.36 188.761,428.76 C189.283,429.16 189.874,429.37 190.533,429.38 C189.427,430.27 188.168,430.71 186.754,430.71 C186.484,430.71 186.239,430.7 186.019,430.67 C187.433,431.6 188.991,432.07 190.693,432.07 C191.774,432.07 192.789,431.89 193.738,431.54 C194.686,431.19 195.497,430.72 196.169,430.14 C196.841,429.55 197.421,428.87 197.908,428.11 C198.395,427.35 198.758,426.55 198.997,425.72 C199.235,424.88 199.355,424.05 199.355,423.22 C199.355,423.04 199.351,422.9 199.345,422.81 C199.942,422.37 200.451,421.83 200.872,421.2 C200.288,421.46 199.703,421.62 199.119,421.68 L199.119,421.68 L199.119,421.68 Z" id="fa-twitter" stroke="none" fill="#75BDBF" fill-rule="evenodd"></path>
</svg>
