
<svg width="16px" height="16px" viewBox="290 418 16 16" version="1.1" xmlns="http://www.w3.org/2000/svg" xmlns:xlink="http://www.w3.org/1999/xlink">
    <!-- Generator: Sketch 41 (35326) - http://www.bohemiancoding.com/sketch -->
    <desc>Created with Sketch.</desc>
    <defs></defs>
    <path d="M301.401,419.5 C300.292,418.84 299.081,418.51 297.768,418.51 C296.455,418.51 295.244,418.84 294.135,419.5 C293.026,420.16 292.148,421.06 291.501,422.19 C290.854,423.32 290.53,424.56 290.53,425.9 C290.53,427.4 290.929,428.76 291.727,429.98 C292.525,431.2 293.571,432.1 294.865,432.68 C294.84,432 294.881,431.43 294.988,430.98 L295.921,426.95 C295.764,426.64 295.685,426.25 295.685,425.78 C295.685,425.23 295.82,424.78 296.091,424.41 C296.361,424.05 296.691,423.86 297.08,423.86 C297.394,423.86 297.636,423.97 297.806,424.18 C297.976,424.39 298.06,424.66 298.06,424.98 C298.06,425.18 298.024,425.42 297.952,425.71 C297.88,425.99 297.785,426.32 297.669,426.7 C297.553,427.07 297.47,427.37 297.419,427.6 C297.331,427.99 297.404,428.33 297.636,428.61 C297.869,428.88 298.177,429.02 298.56,429.02 C299.232,429.02 299.783,428.64 300.214,427.88 C300.644,427.11 300.859,426.19 300.859,425.1 C300.859,424.25 300.594,423.57 300.063,423.04 C299.532,422.52 298.792,422.25 297.844,422.25 C296.782,422.25 295.922,422.6 295.266,423.3 C294.609,423.99 294.281,424.83 294.281,425.8 C294.281,426.38 294.441,426.86 294.762,427.25 C294.868,427.38 294.903,427.52 294.865,427.67 C294.853,427.7 294.828,427.8 294.79,427.95 C294.752,428.11 294.727,428.21 294.715,428.25 C294.664,428.46 294.545,428.52 294.357,428.45 C293.873,428.24 293.505,427.88 293.254,427.38 C293.002,426.87 292.877,426.28 292.877,425.62 C292.877,425.18 292.944,424.75 293.079,424.32 C293.214,423.89 293.425,423.48 293.711,423.08 C293.997,422.68 294.339,422.32 294.738,422.01 C295.137,421.7 295.622,421.46 296.194,421.27 C296.766,421.09 297.382,420.99 298.041,420.99 C298.934,420.99 299.735,421.19 300.445,421.6 C301.155,422 301.697,422.53 302.071,423.17 C302.444,423.81 302.631,424.5 302.631,425.23 C302.631,426.19 302.468,427.06 302.141,427.83 C301.814,428.6 301.353,429.21 300.756,429.64 C300.159,430.09 299.48,430.3 298.72,430.3 C298.337,430.3 297.979,430.21 297.646,430.03 C297.313,429.85 297.083,429.63 296.958,429.38 C296.675,430.52 296.505,431.19 296.449,431.41 C296.329,431.87 296.084,432.39 295.714,432.99 C296.386,433.2 297.071,433.3 297.768,433.3 C299.081,433.3 300.292,432.97 301.401,432.31 C302.51,431.65 303.388,430.75 304.036,429.62 C304.683,428.48 305.006,427.25 305.006,425.9 C305.006,424.56 304.683,423.32 304.036,422.19 C303.388,421.06 302.51,420.16 301.401,419.5 L301.401,419.5 Z" id="fa-pinterest" stroke="none" fill="#75BDBF" fill-rule="evenodd"></path>
</svg>
